# xmcd CD database file
#
# Track frame offsets:
#	183
#	13343
#	51578
#	65360
#	92213
#	139193
#	158150
#
# Disc length: 2391 seconds
#
# Revision: 0
# Processed by: cddbd v1.4PL0 Copyright (c) Steve Scherf et al.
# Submitted via: CDex 1.50beta10
#
DISCID=62095507
DTITLE=Gerard Badini Super Swing Machine - Mister Swings meets Claude Debussy
DYEAR=1991
DGENRE=Jazz
TTITLE0=Children's corner suite a) Doctor Gradus ad Parnassum
TTITLE1=Children's corner suite b) Serenade for the Doll
TTITLE2=Children's corner suite c) Golliwogg's cake walk
TTITLE3=La plus que lente
TTITLE4=Passepied (from Suite Bergamasque)
TTITLE5=Des pas sur la neige (First book of preludes)
TTITLE6=Toccata (pour le piano)
EXTD=YEAR: 1991
EXTT0=
EXTT1=
EXTT2=
EXTT3=
EXTT4=
EXTT5=
EXTT6=
PLAYORDER=
